<svg width="60" height="60" viewBox="0 0 60 60" fill="none" 
    xmlns="http://www.w3.org/2000/svg">
    <path fill-rule="evenodd" clip-rule="evenodd" d="M1.53554 51.033C-0.417078 52.9856 -0.417078 56.1515 1.53554 58.1041C3.48816 60.0567 6.65398 60.0567 8.6066 58.1041L29.8198 36.8909L51.1752 58.2462C53.1278 60.1988 56.2936 60.1988 58.2462 58.2462C60.1989 56.2936 60.1989 53.1278 58.2462 51.1751L36.8909 29.8198L58.1041 8.60661C60.0567 6.654 60.0567 3.48817 58.1041 1.53553C56.1515 -0.417076 52.9856 -0.417076 51.033 1.53553L29.8198 22.7487L8.74876 1.67768C6.79614 -0.274956 3.63032 -0.274956 1.67769 1.67768C-0.274927 3.63029 -0.274927 6.79612 1.67769 8.74873L22.7488 29.8198L1.53554 51.033Z" fill="white"/>
</svg>
