<svg width="60" height="70" viewBox="0 0 60 70" fill="none" 
    xmlns="http://www.w3.org/2000/svg">
    <rect x="7" y="11.5056" width="10" height="40" rx="5" transform="rotate(-26.7796 7 11.5056)" fill="white"/>
    <rect x="7" y="42.0745" width="10" height="20" rx="5" transform="rotate(-53.8474 7 42.0745)" fill="white"/>
    <rect x="17.0741" y="25.9054" width="33" height="34" rx="15" transform="rotate(-13.8474 17.0741 25.9054)" fill="white"/>
    <rect x="24.0149" y="54.0626" width="33" height="16" transform="rotate(-13.8474 24.0149 54.0626)" fill="white"/>
    <path d="M25.5 1.49999L21.5 7.49999L28 4.49999L25.5 1.49999Z" fill="white"/>
    <path d="M1.5 20.5L7.5 16.5L0 17L1.5 20.5Z" fill="white"/>
    <path d="M14.75 0L15.5 4.49999L18 0.5L14.75 0Z" fill="white"/>
    <path d="M3 9.5L7.5 11L4 7.49999L3 9.5Z" fill="white"/>
</svg>
